<svg xmlns="http://www.w3.org/2000/svg" viewBox="0 0 1316.75 1041.1" width="1316.75" height="1041.1" style="--bg:#1a1b26;--fg:#a9b1d6;--line:#3d59a1;--accent:#7aa2f7;--muted:#565f89;background:var(--bg)">
<style>
  @import url('https://fonts.googleapis.com/css2?family=Inter:wght@400;500;600;700&amp;display=swap');
  text { font-family: 'Inter', system-ui, sans-serif; }
  svg {
    /* Derived from --bg and --fg (overridable via --line, --accent, etc.) */
    --_text:          var(--fg);
    --_text-sec:      var(--muted, color-mix(in srgb, var(--fg) 60%, var(--bg)));
    --_text-muted:    var(--muted, color-mix(in srgb, var(--fg) 40%, var(--bg)));
    --_text-faint:    color-mix(in srgb, var(--fg) 25%, var(--bg));
    --_line:          var(--line, color-mix(in srgb, var(--fg) 30%, var(--bg)));
    --_arrow:         var(--accent, color-mix(in srgb, var(--fg) 50%, var(--bg)));
    --_node-fill:     var(--surface, color-mix(in srgb, var(--fg) 3%, var(--bg)));
    --_node-stroke:   var(--border, color-mix(in srgb, var(--fg) 20%, var(--bg)));
    --_group-fill:    var(--bg);
    --_group-hdr:     color-mix(in srgb, var(--fg) 5%, var(--bg));
    --_inner-stroke:  color-mix(in srgb, var(--fg) 12%, var(--bg));
    --_key-badge:     color-mix(in srgb, var(--fg) 10%, var(--bg));
  }
</style>
<defs>
  <marker id="arrowhead" markerWidth="8" markerHeight="4.8" refX="8" refY="2.4" orient="auto">
    <polygon points="0 0, 8 2.4, 0 4.8" fill="var(--_arrow)" />
  </marker>
  <marker id="arrowhead-start" markerWidth="8" markerHeight="4.8" refX="0" refY="2.4" orient="auto-start-reverse">
    <polygon points="8 0, 0 2.4, 8 4.8" fill="var(--_arrow)" />
  </marker>
</defs>
<polyline points="601.1750000000001,76 601.1750000000001,116" fill="none" stroke="var(--_line)" stroke-width="0.75" marker-end="url(#arrowhead)" />
<polyline points="601.1750000000001,152 601.1750000000001,192" fill="none" stroke="var(--_line)" stroke-width="0.75" marker-end="url(#arrowhead)" />
<polyline points="531.9654654318571,314.64046543185697 531.9654654318571,412.35 278.8375,412.35 278.8375,440.85" fill="none" stroke="var(--_line)" stroke-width="0.75" marker-end="url(#arrowhead)" />
<polyline points="620.0037182075091,365.0212817924909 620.0037182075091,412.35 631.5625000000001,412.35 631.5625000000001,440.85" fill="none" stroke="var(--_line)" stroke-width="0.75" marker-end="url(#arrowhead)" />
<polyline points="673.7480606030963,311.27693939690386 673.7480606030963,412.35 987.8625000000001,412.35 987.8625000000001,440.85" fill="none" stroke="var(--_line)" stroke-width="0.75" marker-end="url(#arrowhead)" />
<polyline points="278.8375,476.85 278.8375,534.85 408.2125000000001,534.85" fill="none" stroke="var(--_line)" stroke-width="0.75" marker-end="url(#arrowhead)" />
<polyline points="631.5625000000001,476.85 631.5625000000001,516.85" fill="none" stroke="var(--_line)" stroke-width="0.75" marker-end="url(#arrowhead)" />
<polyline points="987.8625000000001,476.85 987.8625000000001,534.85 854.9125000000001,534.85" fill="none" stroke="var(--_line)" stroke-width="0.75" marker-end="url(#arrowhead)" />
<polyline points="631.5625000000001,552.85 631.5625000000001,572.85 424.8125,572.85 424.8125,592.85" fill="none" stroke="var(--_line)" stroke-width="0.75" marker-end="url(#arrowhead)" />
<polyline points="631.5625000000001,552.85 631.5625000000001,572.85 781.1125,572.85 781.1125,592.85" fill="none" stroke="var(--_line)" stroke-width="0.75" marker-end="url(#arrowhead)" />
<polyline points="424.8125,628.85 424.8125,723.5754762869883 576.8370237130118,723.5754762869883" fill="none" stroke="var(--_line)" stroke-width="0.75" marker-end="url(#arrowhead)" />
<polyline points="781.1125,628.85 781.1125,717.4496566139146 680.1621566139147,717.4496566139146" fill="none" stroke="var(--_line)" stroke-width="0.75" marker-end="url(#arrowhead)" />
<polyline points="565.6720524363828,766.2095524363828 565.6720524363828,860.6 170.4,860.6 170.4,889.1" fill="none" stroke="var(--_line)" stroke-width="0.75" marker-end="url(#arrowhead)" />
<polyline points="581.3139234914264,781.8514234914263 581.3139234914264,860.6 455.19999999999993,860.6 455.19999999999993,889.1" fill="none" stroke="var(--_line)" stroke-width="0.75" marker-end="url(#arrowhead)" />
<polyline points="673.983648394483,789.6788516055171 673.983648394483,860.6 750.725,860.6 750.725,889.1" fill="none" stroke="var(--_line)" stroke-width="0.75" marker-end="url(#arrowhead)" />
<polyline points="697.5507988323295,766.1117011676706 697.5507988323295,860.6 1096.3000000000002,860.6 1096.3000000000002,889.1" fill="none" stroke="var(--_line)" stroke-width="0.75" marker-end="url(#arrowhead)" />
<polyline points="170.4,925.1 170.4,983.1 299.77500000000003,983.1" fill="none" stroke="var(--_line)" stroke-width="0.75" marker-end="url(#arrowhead)" />
<polyline points="455.19999999999993,925.1 455.2,965.1" fill="none" stroke="var(--_line)" stroke-width="0.75" marker-end="url(#arrowhead)" />
<polyline points="750.725,925.1 750.725,983.1 610.625,983.1" fill="none" stroke="var(--_line)" stroke-width="0.75" marker-end="url(#arrowhead)" />
<rect x="236.51749999999998" y="398.85" width="84.64" height="27" rx="4" ry="4" fill="var(--bg)" stroke="var(--_inner-stroke)" stroke-width="0.5" />
<text x="278.8375" y="412.35" text-anchor="middle" dy="0.35em" font-size="11" font-weight="400" fill="var(--_text-muted)">Blood report</text>
<rect x="580.6625000000001" y="398.85" width="101.8" height="27" rx="4" ry="4" fill="var(--bg)" stroke="var(--_inner-stroke)" stroke-width="0.5" />
<text x="631.5625000000001" y="412.35" text-anchor="middle" dy="0.35em" font-size="11" font-weight="400" fill="var(--_text-muted)">Voice responses</text>
<rect x="945.5425" y="398.85" width="84.64" height="27" rx="4" ry="4" fill="var(--bg)" stroke="var(--_inner-stroke)" stroke-width="0.5" />
<text x="987.8625000000001" y="412.35" text-anchor="middle" dy="0.35em" font-size="11" font-weight="400" fill="var(--_text-muted)">Family notes</text>
<rect x="153.82" y="847.1" width="33.16" height="27" rx="4" ry="4" fill="var(--bg)" stroke="var(--_inner-stroke)" stroke-width="0.5" />
<text x="170.4" y="860.6" text-anchor="middle" dy="0.35em" font-size="11" font-weight="400" fill="var(--_text-muted)">Low</text>
<rect x="430.0399999999999" y="847.1" width="50.32" height="27" rx="4" ry="4" fill="var(--bg)" stroke="var(--_inner-stroke)" stroke-width="0.5" />
<text x="455.19999999999993" y="860.6" text-anchor="middle" dy="0.35em" font-size="11" font-weight="400" fill="var(--_text-muted)">Medium</text>
<rect x="731.285" y="847.1" width="38.88" height="27" rx="4" ry="4" fill="var(--bg)" stroke="var(--_inner-stroke)" stroke-width="0.5" />
<text x="750.725" y="860.6" text-anchor="middle" dy="0.35em" font-size="11" font-weight="400" fill="var(--_text-muted)">High</text>
<rect x="402.85" y="40" width="396.65000000000003" height="36" rx="0" ry="0" fill="#9ece6a" stroke="var(--_node-stroke)" stroke-width="0.75" />
<rect x="410.00000000000006" y="116" width="382.35" height="36" rx="0" ry="0" fill="var(--_node-fill)" stroke="var(--_node-stroke)" stroke-width="0.75" />
<polygon points="601.1750000000001,192 697.1000000000001,287.925 601.1750000000001,383.85 505.25000000000006,287.925" fill="var(--_node-fill)" stroke="var(--_node-stroke)" stroke-width="0.75" />
<rect x="116.26249999999996" y="440.85" width="325.15000000000003" height="36" rx="0" ry="0" fill="var(--_node-fill)" stroke="var(--_node-stroke)" stroke-width="0.75" />
<rect x="465.41250000000014" y="440.85" width="332.3" height="36" rx="0" ry="0" fill="var(--_node-fill)" stroke="var(--_node-stroke)" stroke-width="0.75" />
<rect x="821.7125000000001" y="440.85" width="332.3" height="36" rx="0" ry="0" fill="var(--_node-fill)" stroke="var(--_node-stroke)" stroke-width="0.75" />
<rect x="408.2125000000001" y="516.85" width="446.70000000000005" height="36" rx="0" ry="0" fill="#7aa2f7" stroke="var(--_node-stroke)" stroke-width="0.75" />
<rect x="233.6375" y="592.85" width="382.35" height="36" rx="0" ry="0" fill="var(--_node-fill)" stroke="var(--_node-stroke)" stroke-width="0.75" />
<rect x="639.9875" y="592.85" width="282.25" height="36" rx="0" ry="0" fill="var(--_node-fill)" stroke="var(--_node-stroke)" stroke-width="0.75" />
<polygon points="631.5625000000001,668.85 713.1875000000001,750.475 631.5625000000001,832.1 549.9375000000001,750.475" fill="#bb9af7" stroke="var(--_node-stroke)" stroke-width="0.75" />
<rect x="40" y="889.1" width="260.8" height="36" rx="0" ry="0" fill="#9ece6a" stroke="var(--_node-stroke)" stroke-width="0.75" />
<rect x="324.79999999999995" y="889.1" width="260.8" height="36" rx="0" ry="0" fill="#e0af68" stroke="var(--_node-stroke)" stroke-width="0.75" />
<rect x="609.6" y="889.1" width="282.25" height="36" rx="0" ry="0" fill="#f7768e" stroke="var(--_node-stroke)" stroke-width="0.75" />
<rect x="915.8500000000001" y="889.1" width="360.90000000000003" height="36" rx="0" ry="0" fill="var(--_node-fill)" stroke="var(--_node-stroke)" stroke-width="0.75" />
<rect x="299.77500000000003" y="965.1" width="310.85" height="36" rx="0" ry="0" fill="#73daca" stroke="var(--_node-stroke)" stroke-width="0.75" />
<text x="601.1750000000001" y="58" text-anchor="middle" dy="0.35em" font-size="13" font-weight="500" fill="#1a1b26">ASHA visits home — 62-yr-old woman, rural Karnataka</text>
<text x="601.1750000000001" y="134" text-anchor="middle" dy="0.35em" font-size="13" font-weight="500" fill="var(--_text)">Opens BharatBrain app — offline Kannada interface</text>
<text x="601.1750000000001" y="287.925" text-anchor="middle" dy="0.35em" font-size="13" font-weight="500" fill="var(--_text)">What records exist?</text>
<text x="278.8375" y="458.85" text-anchor="middle" dy="0.35em" font-size="13" font-weight="500" fill="var(--_text)">OCR scans PHC report — HbA1c 7.8 detected</text>
<text x="631.5625000000001" y="458.85" text-anchor="middle" dy="0.35em" font-size="13" font-weight="500" fill="var(--_text)">3-min Kannada cognitive test — word recall</text>
<text x="987.8625000000001" y="458.85" text-anchor="middle" dy="0.35em" font-size="13" font-weight="500" fill="var(--_text)">Memory lapses and behaviour change entered</text>
<text x="631.5625000000001" y="534.85" text-anchor="middle" dy="0.35em" font-size="13" font-weight="500" fill="#1a1b26">Missing-modality Fusion Model — works with any combination</text>
<text x="424.8125" y="610.85" text-anchor="middle" dy="0.35em" font-size="13" font-weight="500" fill="var(--_text)">Multilingual LLM scores cognitive speech patterns</text>
<text x="781.1125" y="610.85" text-anchor="middle" dy="0.35em" font-size="13" font-weight="500" fill="var(--_text)">T2D Risk Path elevated — HbA1c high</text>
<text x="631.5625000000001" y="750.475" text-anchor="middle" dy="0.35em" font-size="13" font-weight="500" fill="#1a1b26">Risk Assessment</text>
<text x="170.4" y="907.1" text-anchor="middle" dy="0.35em" font-size="13" font-weight="500" fill="#1a1b26">Monitor — next visit in 6 months</text>
<text x="455.19999999999993" y="907.1" text-anchor="middle" dy="0.35em" font-size="13" font-weight="500" fill="#1a1b26">Follow up — PHC visit in 30 days</text>
<text x="750.725" y="907.1" text-anchor="middle" dy="0.35em" font-size="13" font-weight="500" fill="#1a1b26">Refer NOW — Neurologist appointment</text>
<text x="1096.3000000000002" y="907.1" text-anchor="middle" dy="0.35em" font-size="13" font-weight="500" fill="var(--_text)">Plain Kannada explanation for ASHA and patient</text>
<text x="455.20000000000005" y="983.1" text-anchor="middle" dy="0.35em" font-size="13" font-weight="500" fill="#1a1b26">Federated update — data stays on device</text>
</svg>